<?xml version="1.0" encoding="UTF-8" standalone="no"?>
<!DOCTYPE svg PUBLIC "-//W3C//DTD SVG 1.1//EN"
 "http://www.w3.org/Graphics/SVG/1.1/DTD/svg11.dtd">
<!-- Generated by graphviz version 2.38.0 (20140413.2041)
 -->
<!-- Title: Tree Pages: 1 -->
<svg width="1061pt" height="603pt"
 viewBox="0.00 0.00 1061.00 603.00" xmlns="http://www.w3.org/2000/svg" xmlns:xlink="http://www.w3.org/1999/xlink">
<g id="graph0" class="graph" transform="scale(1 1) rotate(0) translate(4 599)">
<title>Tree</title>
<polygon fill="white" stroke="none" points="-4,4 -4,-599 1057,-599 1057,4 -4,4"/>
<!-- 0 -->
<g id="node1" class="node"><title>0</title>
<path fill="cornsilk" stroke="black" d="M574,-595C574,-595 452,-595 452,-595 446,-595 440,-589 440,-583 440,-583 440,-515 440,-515 440,-509 446,-503 452,-503 452,-503 574,-503 574,-503 580,-503 586,-509 586,-515 586,-515 586,-583 586,-583 586,-589 580,-595 574,-595"/>
<text text-anchor="start" x="486.5" y="-580.8" font-family="Helvetica,sans-Serif" font-size="14.00">node #0</text>
<text text-anchor="start" x="486.5" y="-566.8" font-family="Helvetica,sans-Serif" font-size="14.00">X</text>
<text text-anchor="start" x="496.5" y="-566.8" font-family="Helvetica,sans-Serif" baseline-shift="sub" font-size="14.00">5</text>
<text text-anchor="start" x="503.5" y="-566.8" font-family="Helvetica,sans-Serif" font-size="14.00"> ≤ 3.5</text>
<text text-anchor="start" x="484" y="-552.8" font-family="Helvetica,sans-Serif" font-size="14.00">gini = 0.5</text>
<text text-anchor="start" x="453" y="-538.8" font-family="Helvetica,sans-Serif" font-size="14.00">samples = 100.0%</text>
<text text-anchor="start" x="460.5" y="-524.8" font-family="Helvetica,sans-Serif" font-size="14.00">value = [0.5, 0.5]</text>
<text text-anchor="start" x="448" y="-510.8" font-family="Helvetica,sans-Serif" font-size="14.00">class = $50K or less</text>
</g>
<!-- 1 -->
<g id="node2" class="node"><title>1</title>
<path fill="cornsilk" stroke="black" d="M489,-467C489,-467 359,-467 359,-467 353,-467 347,-461 347,-455 347,-455 347,-387 347,-387 347,-381 353,-375 359,-375 359,-375 489,-375 489,-375 495,-375 501,-381 501,-387 501,-387 501,-455 501,-455 501,-461 495,-467 489,-467"/>
<text text-anchor="start" x="397.5" y="-452.8" font-family="Helvetica,sans-Serif" font-size="14.00">node #1</text>
<text text-anchor="start" x="385" y="-438.8" font-family="Helvetica,sans-Serif" font-size="14.00">X</text>
<text text-anchor="start" x="395" y="-438.8" font-family="Helvetica,sans-Serif" baseline-shift="sub" font-size="14.00">8</text>
<text text-anchor="start" x="402" y="-438.8" font-family="Helvetica,sans-Serif" font-size="14.00"> ≤ 4668.5</text>
<text text-anchor="start" x="386.5" y="-424.8" font-family="Helvetica,sans-Serif" font-size="14.00">gini = 0.306</text>
<text text-anchor="start" x="368" y="-410.8" font-family="Helvetica,sans-Serif" font-size="14.00">samples = 54.5%</text>
<text text-anchor="start" x="355" y="-396.8" font-family="Helvetica,sans-Serif" font-size="14.00">value = [0.811, 0.189]</text>
<text text-anchor="start" x="359" y="-382.8" font-family="Helvetica,sans-Serif" font-size="14.00">class = $50K or less</text>
</g>
<!-- 0&#45;&gt;1 -->
<g id="edge1" class="edge"><title>0&#45;&gt;1</title>
<path fill="none" stroke="steelblue" d="M481.12,-502.867C474.858,-494.001 468.231,-484.619 461.796,-475.509"/>
<polygon fill="steelblue" stroke="steelblue" points="464.584,-473.39 455.956,-467.241 458.867,-477.429 464.584,-473.39"/>
<text text-anchor="middle" x="451.716" y="-488.179" font-family="Helvetica,sans-Serif" font-size="14.00">True</text>
</g>
<!-- 2 -->
<g id="node9" class="node"><title>2</title>
<path fill="cornsilk" stroke="black" d="M673,-467C673,-467 531,-467 531,-467 525,-467 519,-461 519,-455 519,-455 519,-387 519,-387 519,-381 525,-375 531,-375 531,-375 673,-375 673,-375 679,-375 685,-381 685,-387 685,-387 685,-455 685,-455 685,-461 679,-467 673,-467"/>
<text text-anchor="start" x="575.5" y="-452.8" font-family="Helvetica,sans-Serif" font-size="14.00">node #2</text>
<text text-anchor="start" x="575.5" y="-438.8" font-family="Helvetica,sans-Serif" font-size="14.00">X</text>
<text text-anchor="start" x="585.5" y="-438.8" font-family="Helvetica,sans-Serif" baseline-shift="sub" font-size="14.00">2</text>
<text text-anchor="start" x="592.5" y="-438.8" font-family="Helvetica,sans-Serif" font-size="14.00"> ≤ 9.5</text>
<text text-anchor="start" x="564.5" y="-424.8" font-family="Helvetica,sans-Serif" font-size="14.00">gini = 0.408</text>
<text text-anchor="start" x="546" y="-410.8" font-family="Helvetica,sans-Serif" font-size="14.00">samples = 45.5%</text>
<text text-anchor="start" x="533" y="-396.8" font-family="Helvetica,sans-Serif" font-size="14.00">value = [0.286, 0.714]</text>
<text text-anchor="start" x="527" y="-382.8" font-family="Helvetica,sans-Serif" font-size="14.00">class = More than $50K</text>
</g>
<!-- 0&#45;&gt;2 -->
<g id="edge8" class="edge"><title>0&#45;&gt;2</title>
<path fill="none" stroke="steelblue" d="M544.88,-502.867C551.142,-494.001 557.769,-484.619 564.204,-475.509"/>
<polygon fill="steelblue" stroke="steelblue" points="567.133,-477.429 570.044,-467.241 561.416,-473.39 567.133,-477.429"/>
<text text-anchor="middle" x="574.284" y="-488.179" font-family="Helvetica,sans-Serif" font-size="14.00">False</text>
</g>
<!-- 3 -->
<g id="node3" class="node"><title>3</title>
<path fill="cornsilk" stroke="black" d="M311,-339C311,-339 181,-339 181,-339 175,-339 169,-333 169,-327 169,-327 169,-259 169,-259 169,-253 175,-247 181,-247 181,-247 311,-247 311,-247 317,-247 323,-253 323,-259 323,-259 323,-327 323,-327 323,-333 317,-339 311,-339"/>
<text text-anchor="start" x="219.5" y="-324.8" font-family="Helvetica,sans-Serif" font-size="14.00">node #3</text>
<text text-anchor="start" x="215.5" y="-310.8" font-family="Helvetica,sans-Serif" font-size="14.00">X</text>
<text text-anchor="start" x="225.5" y="-310.8" font-family="Helvetica,sans-Serif" baseline-shift="sub" font-size="14.00">2</text>
<text text-anchor="start" x="232.5" y="-310.8" font-family="Helvetica,sans-Serif" font-size="14.00"> ≤ 12.5</text>
<text text-anchor="start" x="208.5" y="-296.8" font-family="Helvetica,sans-Serif" font-size="14.00">gini = 0.243</text>
<text text-anchor="start" x="190" y="-282.8" font-family="Helvetica,sans-Serif" font-size="14.00">samples = 53.2%</text>
<text text-anchor="start" x="177" y="-268.8" font-family="Helvetica,sans-Serif" font-size="14.00">value = [0.859, 0.141]</text>
<text text-anchor="start" x="181" y="-254.8" font-family="Helvetica,sans-Serif" font-size="14.00">class = $50K or less</text>
</g>
<!-- 1&#45;&gt;3 -->
<g id="edge2" class="edge"><title>1&#45;&gt;3</title>
<path fill="none" stroke="steelblue" d="M360.241,-374.867C346.481,-365.127 331.845,-354.766 317.802,-344.826"/>
<polygon fill="steelblue" stroke="steelblue" points="319.797,-341.95 309.613,-339.03 315.753,-347.664 319.797,-341.95"/>
</g>
<!-- 4 -->
<g id="node8" class="node"><title>4</title>
<path fill="darkturquoise" stroke="black" d="M495,-334.5C495,-334.5 353,-334.5 353,-334.5 347,-334.5 341,-328.5 341,-322.5 341,-322.5 341,-263.5 341,-263.5 341,-257.5 347,-251.5 353,-251.5 353,-251.5 495,-251.5 495,-251.5 501,-251.5 507,-257.5 507,-263.5 507,-263.5 507,-322.5 507,-322.5 507,-328.5 501,-334.5 495,-334.5"/>
<text text-anchor="start" x="397.5" y="-319.3" font-family="Helvetica,sans-Serif" font-size="14.00">node #4</text>
<text text-anchor="start" x="386.5" y="-304.3" font-family="Helvetica,sans-Serif" font-size="14.00">gini = 0.122</text>
<text text-anchor="start" x="372.5" y="-289.3" font-family="Helvetica,sans-Serif" font-size="14.00">samples = 1.3%</text>
<text text-anchor="start" x="355" y="-274.3" font-family="Helvetica,sans-Serif" font-size="14.00">value = [0.065, 0.935]</text>
<text text-anchor="start" x="349" y="-259.3" font-family="Helvetica,sans-Serif" font-size="14.00">class = More than $50K</text>
</g>
<!-- 1&#45;&gt;4 -->
<g id="edge7" class="edge"><title>1&#45;&gt;4</title>
<path fill="none" stroke="steelblue" d="M424,-374.867C424,-365.119 424,-354.749 424,-344.801"/>
<polygon fill="steelblue" stroke="steelblue" points="427.5,-344.63 424,-334.63 420.5,-344.63 427.5,-344.63"/>
</g>
<!-- 7 -->
<g id="node4" class="node"><title>7</title>
<path fill="coral" stroke="black" d="M142,-206.5C142,-206.5 12,-206.5 12,-206.5 6,-206.5 0,-200.5 0,-194.5 0,-194.5 0,-135.5 0,-135.5 0,-129.5 6,-123.5 12,-123.5 12,-123.5 142,-123.5 142,-123.5 148,-123.5 154,-129.5 154,-135.5 154,-135.5 154,-194.5 154,-194.5 154,-200.5 148,-206.5 142,-206.5"/>
<text text-anchor="start" x="50.5" y="-191.3" font-family="Helvetica,sans-Serif" font-size="14.00">node #7</text>
<text text-anchor="start" x="39.5" y="-176.3" font-family="Helvetica,sans-Serif" font-size="14.00">gini = 0.141</text>
<text text-anchor="start" x="21" y="-161.3" font-family="Helvetica,sans-Serif" font-size="14.00">samples = 42.8%</text>
<text text-anchor="start" x="8" y="-146.3" font-family="Helvetica,sans-Serif" font-size="14.00">value = [0.923, 0.077]</text>
<text text-anchor="start" x="12" y="-131.3" font-family="Helvetica,sans-Serif" font-size="14.00">class = $50K or less</text>
</g>
<!-- 3&#45;&gt;7 -->
<g id="edge3" class="edge"><title>3&#45;&gt;7</title>
<path fill="none" stroke="steelblue" d="M185.464,-246.867C170.601,-235.785 154.658,-223.899 139.695,-212.743"/>
<polygon fill="steelblue" stroke="steelblue" points="141.605,-209.801 131.496,-206.63 137.421,-215.413 141.605,-209.801"/>
</g>
<!-- 8 -->
<g id="node5" class="node"><title>8</title>
<path fill="cornsilk" stroke="black" d="M314,-211C314,-211 184,-211 184,-211 178,-211 172,-205 172,-199 172,-199 172,-131 172,-131 172,-125 178,-119 184,-119 184,-119 314,-119 314,-119 320,-119 326,-125 326,-131 326,-131 326,-199 326,-199 326,-205 320,-211 314,-211"/>
<text text-anchor="start" x="222.5" y="-196.8" font-family="Helvetica,sans-Serif" font-size="14.00">node #8</text>
<text text-anchor="start" x="218.5" y="-182.8" font-family="Helvetica,sans-Serif" font-size="14.00">X</text>
<text text-anchor="start" x="228.5" y="-182.8" font-family="Helvetica,sans-Serif" baseline-shift="sub" font-size="14.00">0</text>
<text text-anchor="start" x="235.5" y="-182.8" font-family="Helvetica,sans-Serif" font-size="14.00"> ≤ 27.5</text>
<text text-anchor="start" x="211.5" y="-168.8" font-family="Helvetica,sans-Serif" font-size="14.00">gini = 0.457</text>
<text text-anchor="start" x="193" y="-154.8" font-family="Helvetica,sans-Serif" font-size="14.00">samples = 10.4%</text>
<text text-anchor="start" x="180" y="-140.8" font-family="Helvetica,sans-Serif" font-size="14.00">value = [0.647, 0.353]</text>
<text text-anchor="start" x="184" y="-126.8" font-family="Helvetica,sans-Serif" font-size="14.00">class = $50K or less</text>
</g>
<!-- 3&#45;&gt;8 -->
<g id="edge4" class="edge"><title>3&#45;&gt;8</title>
<path fill="none" stroke="steelblue" d="M247.075,-246.867C247.271,-238.634 247.477,-229.957 247.679,-221.465"/>
<polygon fill="steelblue" stroke="steelblue" points="251.184,-221.322 247.923,-211.241 244.186,-221.155 251.184,-221.322"/>
</g>
<!-- 13 -->
<g id="node6" class="node"><title>13</title>
<path fill="coral" stroke="black" d="M228,-83C228,-83 98,-83 98,-83 92,-83 86,-77 86,-71 86,-71 86,-12 86,-12 86,-6 92,-0 98,-0 98,-0 228,-0 228,-0 234,-0 240,-6 240,-12 240,-12 240,-71 240,-71 240,-77 234,-83 228,-83"/>
<text text-anchor="start" x="132.5" y="-67.8" font-family="Helvetica,sans-Serif" font-size="14.00">node #13</text>
<text text-anchor="start" x="125.5" y="-52.8" font-family="Helvetica,sans-Serif" font-size="14.00">gini = 0.087</text>
<text text-anchor="start" x="111.5" y="-37.8" font-family="Helvetica,sans-Serif" font-size="14.00">samples = 3.2%</text>
<text text-anchor="start" x="94" y="-22.8" font-family="Helvetica,sans-Serif" font-size="14.00">value = [0.955, 0.045]</text>
<text text-anchor="start" x="98" y="-7.8" font-family="Helvetica,sans-Serif" font-size="14.00">class = $50K or less</text>
</g>
<!-- 8&#45;&gt;13 -->
<g id="edge5" class="edge"><title>8&#45;&gt;13</title>
<path fill="none" stroke="steelblue" d="M216.977,-118.758C210.752,-109.964 204.199,-100.705 197.887,-91.7879"/>
<polygon fill="steelblue" stroke="steelblue" points="200.563,-89.5099 191.928,-83.3698 194.849,-93.5541 200.563,-89.5099"/>
</g>
<!-- 14 -->
<g id="node7" class="node"><title>14</title>
<path fill="coral" stroke="black" d="M400,-83C400,-83 270,-83 270,-83 264,-83 258,-77 258,-71 258,-71 258,-12 258,-12 258,-6 264,-0 270,-0 270,-0 400,-0 400,-0 406,-0 412,-6 412,-12 412,-12 412,-71 412,-71 412,-77 406,-83 400,-83"/>
<text text-anchor="start" x="304.5" y="-67.8" font-family="Helvetica,sans-Serif" font-size="14.00">node #14</text>
<text text-anchor="start" x="297.5" y="-52.8" font-family="Helvetica,sans-Serif" font-size="14.00">gini = 0.494</text>
<text text-anchor="start" x="283.5" y="-37.8" font-family="Helvetica,sans-Serif" font-size="14.00">samples = 7.3%</text>
<text text-anchor="start" x="266" y="-22.8" font-family="Helvetica,sans-Serif" font-size="14.00">value = [0.553, 0.447]</text>
<text text-anchor="start" x="270" y="-7.8" font-family="Helvetica,sans-Serif" font-size="14.00">class = $50K or less</text>
</g>
<!-- 8&#45;&gt;14 -->
<g id="edge6" class="edge"><title>8&#45;&gt;14</title>
<path fill="none" stroke="steelblue" d="M281.023,-118.758C287.248,-109.964 293.801,-100.705 300.113,-91.7879"/>
<polygon fill="steelblue" stroke="steelblue" points="303.151,-93.5541 306.072,-83.3698 297.437,-89.5099 303.151,-93.5541"/>
</g>
<!-- 5 -->
<g id="node10" class="node"><title>5</title>
<path fill="cornsilk" stroke="black" d="M667,-339C667,-339 537,-339 537,-339 531,-339 525,-333 525,-327 525,-327 525,-259 525,-259 525,-253 531,-247 537,-247 537,-247 667,-247 667,-247 673,-247 679,-253 679,-259 679,-259 679,-327 679,-327 679,-333 673,-339 667,-339"/>
<text text-anchor="start" x="575.5" y="-324.8" font-family="Helvetica,sans-Serif" font-size="14.00">node #5</text>
<text text-anchor="start" x="563" y="-310.8" font-family="Helvetica,sans-Serif" font-size="14.00">X</text>
<text text-anchor="start" x="573" y="-310.8" font-family="Helvetica,sans-Serif" baseline-shift="sub" font-size="14.00">8</text>
<text text-anchor="start" x="580" y="-310.8" font-family="Helvetica,sans-Serif" font-size="14.00"> ≤ 5095.5</text>
<text text-anchor="start" x="573" y="-296.8" font-family="Helvetica,sans-Serif" font-size="14.00">gini = 0.5</text>
<text text-anchor="start" x="546" y="-282.8" font-family="Helvetica,sans-Serif" font-size="14.00">samples = 19.5%</text>
<text text-anchor="start" x="533" y="-268.8" font-family="Helvetica,sans-Serif" font-size="14.00">value = [0.502, 0.498]</text>
<text text-anchor="start" x="537" y="-254.8" font-family="Helvetica,sans-Serif" font-size="14.00">class = $50K or less</text>
</g>
<!-- 2&#45;&gt;5 -->
<g id="edge9" class="edge"><title>2&#45;&gt;5</title>
<path fill="none" stroke="steelblue" d="M602,-374.867C602,-366.634 602,-357.957 602,-349.465"/>
<polygon fill="steelblue" stroke="steelblue" points="605.5,-349.241 602,-339.241 598.5,-349.241 605.5,-349.241"/>
</g>
<!-- 6 -->
<g id="node13" class="node"><title>6</title>
<path fill="cornsilk" stroke="black" d="M857,-339C857,-339 715,-339 715,-339 709,-339 703,-333 703,-327 703,-327 703,-259 703,-259 703,-253 709,-247 715,-247 715,-247 857,-247 857,-247 863,-247 869,-253 869,-259 869,-259 869,-327 869,-327 869,-333 863,-339 857,-339"/>
<text text-anchor="start" x="759.5" y="-324.8" font-family="Helvetica,sans-Serif" font-size="14.00">node #6</text>
<text text-anchor="start" x="755.5" y="-310.8" font-family="Helvetica,sans-Serif" font-size="14.00">X</text>
<text text-anchor="start" x="765.5" y="-310.8" font-family="Helvetica,sans-Serif" baseline-shift="sub" font-size="14.00">2</text>
<text text-anchor="start" x="772.5" y="-310.8" font-family="Helvetica,sans-Serif" font-size="14.00"> ≤ 12.5</text>
<text text-anchor="start" x="748.5" y="-296.8" font-family="Helvetica,sans-Serif" font-size="14.00">gini = 0.296</text>
<text text-anchor="start" x="730" y="-282.8" font-family="Helvetica,sans-Serif" font-size="14.00">samples = 26.0%</text>
<text text-anchor="start" x="725.5" y="-268.8" font-family="Helvetica,sans-Serif" font-size="14.00">value = [0.18, 0.82]</text>
<text text-anchor="start" x="711" y="-254.8" font-family="Helvetica,sans-Serif" font-size="14.00">class = More than $50K</text>
</g>
<!-- 2&#45;&gt;6 -->
<g id="edge12" class="edge"><title>2&#45;&gt;6</title>
<path fill="none" stroke="steelblue" d="M667.909,-374.867C682.132,-365.127 697.262,-354.766 711.778,-344.826"/>
<polygon fill="steelblue" stroke="steelblue" points="713.969,-347.567 720.243,-339.03 710.014,-341.792 713.969,-347.567"/>
</g>
<!-- 9 -->
<g id="node11" class="node"><title>9</title>
<path fill="coral" stroke="black" d="M489,-206.5C489,-206.5 359,-206.5 359,-206.5 353,-206.5 347,-200.5 347,-194.5 347,-194.5 347,-135.5 347,-135.5 347,-129.5 353,-123.5 359,-123.5 359,-123.5 489,-123.5 489,-123.5 495,-123.5 501,-129.5 501,-135.5 501,-135.5 501,-194.5 501,-194.5 501,-200.5 495,-206.5 489,-206.5"/>
<text text-anchor="start" x="397.5" y="-191.3" font-family="Helvetica,sans-Serif" font-size="14.00">node #9</text>
<text text-anchor="start" x="386.5" y="-176.3" font-family="Helvetica,sans-Serif" font-size="14.00">gini = 0.496</text>
<text text-anchor="start" x="368" y="-161.3" font-family="Helvetica,sans-Serif" font-size="14.00">samples = 18.7%</text>
<text text-anchor="start" x="355" y="-146.3" font-family="Helvetica,sans-Serif" font-size="14.00">value = [0.546, 0.454]</text>
<text text-anchor="start" x="359" y="-131.3" font-family="Helvetica,sans-Serif" font-size="14.00">class = $50K or less</text>
</g>
<!-- 5&#45;&gt;9 -->
<g id="edge10" class="edge"><title>5&#45;&gt;9</title>
<path fill="none" stroke="steelblue" d="M538.241,-246.867C522.44,-235.682 505.483,-223.679 489.596,-212.433"/>
<polygon fill="steelblue" stroke="steelblue" points="491.582,-209.551 481.398,-206.63 487.538,-215.264 491.582,-209.551"/>
</g>
<!-- 10 -->
<g id="node12" class="node"><title>10</title>
<path fill="darkturquoise" stroke="black" d="M673,-206.5C673,-206.5 531,-206.5 531,-206.5 525,-206.5 519,-200.5 519,-194.5 519,-194.5 519,-135.5 519,-135.5 519,-129.5 525,-123.5 531,-123.5 531,-123.5 673,-123.5 673,-123.5 679,-123.5 685,-129.5 685,-135.5 685,-135.5 685,-194.5 685,-194.5 685,-200.5 679,-206.5 673,-206.5"/>
<text text-anchor="start" x="571.5" y="-191.3" font-family="Helvetica,sans-Serif" font-size="14.00">node #10</text>
<text text-anchor="start" x="564.5" y="-176.3" font-family="Helvetica,sans-Serif" font-size="14.00">gini = 0.021</text>
<text text-anchor="start" x="550.5" y="-161.3" font-family="Helvetica,sans-Serif" font-size="14.00">samples = 0.7%</text>
<text text-anchor="start" x="533" y="-146.3" font-family="Helvetica,sans-Serif" font-size="14.00">value = [0.011, 0.989]</text>
<text text-anchor="start" x="527" y="-131.3" font-family="Helvetica,sans-Serif" font-size="14.00">class = More than $50K</text>
</g>
<!-- 5&#45;&gt;10 -->
<g id="edge11" class="edge"><title>5&#45;&gt;10</title>
<path fill="none" stroke="steelblue" d="M602,-246.867C602,-237.119 602,-226.749 602,-216.801"/>
<polygon fill="steelblue" stroke="steelblue" points="605.5,-216.63 602,-206.63 598.5,-216.63 605.5,-216.63"/>
</g>
<!-- 11 -->
<g id="node14" class="node"><title>11</title>
<path fill="darkturquoise" stroke="black" d="M857,-206.5C857,-206.5 715,-206.5 715,-206.5 709,-206.5 703,-200.5 703,-194.5 703,-194.5 703,-135.5 703,-135.5 703,-129.5 709,-123.5 715,-123.5 715,-123.5 857,-123.5 857,-123.5 863,-123.5 869,-129.5 869,-135.5 869,-135.5 869,-194.5 869,-194.5 869,-200.5 863,-206.5 857,-206.5"/>
<text text-anchor="start" x="755.5" y="-191.3" font-family="Helvetica,sans-Serif" font-size="14.00">node #11</text>
<text text-anchor="start" x="748.5" y="-176.3" font-family="Helvetica,sans-Serif" font-size="14.00">gini = 0.415</text>
<text text-anchor="start" x="730" y="-161.3" font-family="Helvetica,sans-Serif" font-size="14.00">samples = 12.2%</text>
<text text-anchor="start" x="717" y="-146.3" font-family="Helvetica,sans-Serif" font-size="14.00">value = [0.294, 0.706]</text>
<text text-anchor="start" x="711" y="-131.3" font-family="Helvetica,sans-Serif" font-size="14.00">class = More than $50K</text>
</g>
<!-- 6&#45;&gt;11 -->
<g id="edge13" class="edge"><title>6&#45;&gt;11</title>
<path fill="none" stroke="steelblue" d="M786,-246.867C786,-237.119 786,-226.749 786,-216.801"/>
<polygon fill="steelblue" stroke="steelblue" points="789.5,-216.63 786,-206.63 782.5,-216.63 789.5,-216.63"/>
</g>
<!-- 12 -->
<g id="node15" class="node"><title>12</title>
<path fill="darkturquoise" stroke="black" d="M1041,-206.5C1041,-206.5 899,-206.5 899,-206.5 893,-206.5 887,-200.5 887,-194.5 887,-194.5 887,-135.5 887,-135.5 887,-129.5 893,-123.5 899,-123.5 899,-123.5 1041,-123.5 1041,-123.5 1047,-123.5 1053,-129.5 1053,-135.5 1053,-135.5 1053,-194.5 1053,-194.5 1053,-200.5 1047,-206.5 1041,-206.5"/>
<text text-anchor="start" x="939.5" y="-191.3" font-family="Helvetica,sans-Serif" font-size="14.00">node #12</text>
<text text-anchor="start" x="936.5" y="-176.3" font-family="Helvetica,sans-Serif" font-size="14.00">gini = 0.19</text>
<text text-anchor="start" x="914" y="-161.3" font-family="Helvetica,sans-Serif" font-size="14.00">samples = 13.8%</text>
<text text-anchor="start" x="901" y="-146.3" font-family="Helvetica,sans-Serif" font-size="14.00">value = [0.106, 0.894]</text>
<text text-anchor="start" x="895" y="-131.3" font-family="Helvetica,sans-Serif" font-size="14.00">class = More than $50K</text>
</g>
<!-- 6&#45;&gt;12 -->
<g id="edge14" class="edge"><title>6&#45;&gt;12</title>
<path fill="none" stroke="steelblue" d="M851.909,-246.867C868.242,-235.682 885.771,-223.679 902.193,-212.433"/>
<polygon fill="steelblue" stroke="steelblue" points="904.394,-215.168 910.667,-206.63 900.439,-209.392 904.394,-215.168"/>
</g>
</g>
</svg>
